<svg width="34" height="30" viewBox="0 0 34 30" fill="none" xmlns="http://www.w3.org/2000/svg">
<rect x="0.402344" width="32.6318" height="30" rx="8" fill="#0B0959"/>
<path d="M16.8242 10.0289C16.7768 9.98715 16.7136 9.96387 16.648 9.96387C16.5823 9.96387 16.5192 9.98715 16.4718 10.0289L10.6051 15.1813C10.5801 15.2032 10.5603 15.2296 10.5468 15.2587C10.5333 15.2879 10.5263 15.3192 10.5263 15.3509L10.5254 20.1867C10.5254 20.4353 10.6328 20.6738 10.8241 20.8496C11.0153 21.0254 11.2747 21.1242 11.5451 21.1242H14.6075C14.7428 21.1242 14.8725 21.0748 14.9681 20.9869C15.0637 20.899 15.1174 20.7798 15.1174 20.6554V16.6711C15.1174 16.6089 15.1443 16.5493 15.1921 16.5053C15.2399 16.4614 15.3047 16.4367 15.3724 16.4367H17.9217C17.9893 16.4367 18.0542 16.4614 18.102 16.5053C18.1498 16.5493 18.1766 16.6089 18.1766 16.6711V20.6554C18.1766 20.7798 18.2304 20.899 18.326 20.9869C18.4216 21.0748 18.5513 21.1242 18.6865 21.1242H21.7477C22.0181 21.1242 22.2775 21.0254 22.4687 20.8496C22.66 20.6738 22.7674 20.4353 22.7674 20.1867V15.3509C22.7674 15.3192 22.7605 15.2879 22.747 15.2587C22.7334 15.2296 22.7136 15.2032 22.6887 15.1813L16.8242 10.0289Z" fill="white"/>
<path d="M24.134 14.2153L21.7503 12.1188V8.9375C21.7503 8.81318 21.6966 8.69395 21.601 8.60604C21.5053 8.51814 21.3757 8.46875 21.2404 8.46875H19.7108C19.5756 8.46875 19.4459 8.51814 19.3503 8.60604C19.2547 8.69395 19.2009 8.81318 19.2009 8.9375V9.875L17.3552 8.25254C17.1825 8.09199 16.9256 8 16.6481 8C16.3715 8 16.1153 8.09199 15.9425 8.25283L9.16445 14.2147C8.96623 14.3905 8.94138 14.6797 9.12174 14.8701C9.16704 14.9182 9.22249 14.9573 9.28474 14.985C9.34699 15.0127 9.41473 15.0286 9.48383 15.0315C9.55293 15.0344 9.62195 15.0243 9.6867 15.0019C9.75144 14.9795 9.81054 14.9452 9.86042 14.9012L16.4728 9.09219C16.5203 9.05046 16.5834 9.02718 16.649 9.02718C16.7147 9.02718 16.7778 9.05046 16.8253 9.09219L23.4383 14.9012C23.5357 14.9871 23.6662 15.0339 23.8011 15.0315C23.9361 15.0291 24.0645 14.9776 24.1582 14.8883C24.3538 14.702 24.3376 14.3943 24.134 14.2153Z" fill="white"/>
</svg>
