<svg width="65" height="68" viewBox="0 0 65 68" fill="none" xmlns="http://www.w3.org/2000/svg">
<path d="M59.0181 42C59.0181 52.5594 59.0181 55.0393 55.9153 58.3195C52.8127 61.6 47.8186 61.6 37.8311 61.6" stroke="#0B0959" stroke-width="5" stroke-linecap="round"/>
<path d="M27.2369 5.60059C17.2492 5.60059 12.2554 5.60059 9.15257 8.88098C6.04981 12.1614 6.0498 14.6411 6.0498 25.2006" stroke="#0B0959" stroke-width="5" stroke-linecap="round"/>
<path d="M32.5328 19.6003C24.7802 19.6003 19.5038 23.9746 16.3576 27.8329C14.782 29.7652 13.9941 30.7315 13.9941 33.6003C13.9941 36.4692 14.782 37.4355 16.3576 39.3678C19.5038 43.2262 24.7802 47.6003 32.5328 47.6003C40.2854 47.6003 45.5618 43.2262 48.7081 39.3678C50.2836 37.4355 51.0715 36.4692 51.0715 33.6003C51.0715 30.7315 50.2836 29.7652 48.7081 27.8329C47.2904 26.0945 45.4405 24.2513 43.1263 22.7507" stroke="#0B0959" stroke-width="5" stroke-linecap="round"/>
<path d="M32.5331 39.2002C35.4584 39.2002 37.8299 36.693 37.8299 33.6002C37.8299 30.5074 35.4584 28.0002 32.5331 28.0002C29.6078 28.0002 27.2363 30.5074 27.2363 33.6002C27.2363 36.693 29.6078 39.2002 32.5331 39.2002Z" stroke="#0B0959" stroke-width="5"/>
<path d="M27.2369 61.6002C26.3121 61.6002 25.4301 61.6002 24.5885 61.5977M6.0498 42.0002C6.0498 52.5596 6.04981 55.0396 9.15257 58.3198C10.8824 60.1487 13.2001 60.9579 16.6433 61.316" stroke="#0B0959" stroke-width="5" stroke-linecap="round"/>
<path d="M37.8311 5.60034C38.7559 5.60034 39.6378 5.60034 40.4794 5.60295M59.0181 25.2003C59.0181 14.6409 59.0181 12.1612 55.9153 8.88074C54.1853 7.05183 51.8677 6.24258 48.4246 5.88451" stroke="#0B0959" stroke-width="5" stroke-linecap="round"/>
</svg>
